<svg width="24" height="24" viewBox="0 0 24 24" fill="none" xmlns="http://www.w3.org/2000/svg">
<g id="settings gear">
<path id="XMLID 839" d="M12.0051 15.86C9.8851 15.86 8.14509 14.14 8.14509 12C8.14509 9.87998 9.8651 8.13997 12.0051 8.13997C14.1251 8.13997 15.8651 9.85998 15.8651 12C15.8651 14.12 14.1251 15.86 12.0051 15.86ZM12.0051 9.55999C10.6651 9.55999 9.56511 10.66 9.56511 12C9.56511 13.34 10.6651 14.44 12.0051 14.44C13.3451 14.44 14.4451 13.34 14.4451 12C14.4451 10.66 13.3451 9.55999 12.0051 9.55999ZM12.0051 21.2H11.9051C11.2051 21.2 10.6051 21.12 10.5651 21.12C10.2451 21.08 10.0051 20.84 9.94509 20.52L9.74509 19.08C9.30509 18.94 8.8851 18.76 8.4851 18.54L7.34509 19.4C7.08509 19.6 6.7451 19.58 6.4851 19.4C6.4651 19.38 5.9851 19 5.4851 18.52L5.4051 18.44C4.9051 17.94 4.54509 17.46 4.52509 17.44C4.32509 17.18 4.32509 16.84 4.52509 16.58L5.4051 15.42C5.1851 15.02 5.0251 14.58 4.8851 14.14L3.4851 13.94C3.1651 13.9 2.9251 13.64 2.8851 13.32C2.8851 13.3 2.8051 12.68 2.8051 11.98V11.88C2.8051 11.18 2.8851 10.58 2.8851 10.54C2.9251 10.22 3.1651 9.97998 3.4851 9.91998L4.92509 9.71998C5.06509 9.27998 5.24511 8.85999 5.46511 8.45999L4.6051 7.31998C4.4051 7.05998 4.4251 6.71999 4.6051 6.45999C4.6251 6.43999 5.0051 5.95999 5.4851 5.45999L5.56511 5.37999C6.06511 4.87999 6.54511 4.51998 6.56511 4.49998C6.82511 4.29998 7.16509 4.29998 7.42509 4.49998L8.5851 5.37999C8.9851 5.15999 9.42511 4.99999 9.86511 4.85999L10.0651 3.45999C10.1051 3.13999 10.3651 2.89999 10.6851 2.85999C10.7051 2.85999 11.3251 2.77999 12.0251 2.77999H12.1251C12.8251 2.77999 13.4251 2.85999 13.4651 2.85999C13.7851 2.89999 14.0251 3.13999 14.0851 3.45999L14.2851 4.89998C14.7251 5.03998 15.1451 5.21997 15.5451 5.43997L16.6851 4.57999C16.9451 4.37999 17.2851 4.39999 17.5451 4.57999C17.5651 4.59999 18.0451 4.97999 18.5451 5.45999L18.6251 5.53997C19.1251 6.03997 19.4851 6.51997 19.5051 6.53997C19.7051 6.79997 19.7051 7.13998 19.5051 7.39998L18.6251 8.55999C18.8451 8.95999 19.0051 9.39997 19.1451 9.83997L20.5451 10.04C20.8651 10.08 21.1051 10.34 21.1451 10.66C21.1451 10.68 21.2251 11.3 21.2251 12V12.1C21.2251 12.8 21.1451 13.4 21.1451 13.44C21.1051 13.76 20.8651 14 20.5451 14.06L19.1051 14.26C18.9651 14.7 18.7851 15.12 18.5651 15.52L19.4251 16.66C19.6251 16.92 19.6051 17.26 19.4251 17.52C19.4051 17.54 19.0251 18.02 18.5451 18.52L18.4651 18.6C17.9651 19.1 17.4851 19.46 17.4651 19.48C17.2051 19.68 16.8651 19.68 16.6051 19.48L15.4451 18.6C15.0451 18.82 14.6051 18.98 14.1651 19.12L13.9651 20.52C13.9251 20.84 13.6651 21.08 13.3451 21.12C13.3051 21.12 12.7051 21.2 12.0051 21.2ZM11.2851 19.76C11.4651 19.78 11.6851 19.78 11.9051 19.78H12.0051C12.2251 19.78 12.4451 19.78 12.6251 19.76L12.8051 18.44C12.8451 18.14 13.0651 17.92 13.3451 17.84C13.9651 17.7 14.5651 17.46 15.1051 17.12C15.2651 17.02 15.4651 17 15.6451 17.04C15.7451 17.06 15.8451 17.12 15.9251 17.18L16.9851 17.98C17.1251 17.86 17.2851 17.72 17.4451 17.56L17.5251 17.48C17.6851 17.32 17.8251 17.16 17.9451 17.02L17.1451 15.96C16.9651 15.72 16.9651 15.4 17.1051 15.16C17.4451 14.64 17.6851 14.06 17.8251 13.46C17.8851 13.16 18.1251 12.92 18.4251 12.88L19.7651 12.7C19.7851 12.52 19.7851 12.3 19.7851 12.08V11.98C19.7851 11.76 19.7851 11.54 19.7651 11.36L18.4451 11.18C18.1651 11.14 17.9251 10.92 17.8651 10.64C17.7251 10.02 17.4851 9.43998 17.1651 8.89998C17.1251 8.85998 17.1051 8.79997 17.0851 8.73997C17.0051 8.51997 17.0451 8.25999 17.1851 8.07999L18.0051 6.99998C17.8851 6.85998 17.7451 6.69997 17.5851 6.53997L17.5051 6.45999C17.3451 6.29999 17.1851 6.15997 17.0451 6.03997L15.9851 6.83997C15.7251 7.01997 15.3851 7.01997 15.1451 6.83997C14.6251 6.51997 14.0451 6.27998 13.4451 6.11998C13.1651 6.05998 12.9451 5.81998 12.9051 5.51998L12.7251 4.17999C12.5451 4.15999 12.3251 4.15999 12.1051 4.15999H12.0051C11.7851 4.15999 11.5651 4.15999 11.3851 4.17999L11.2051 5.49998C11.1651 5.81998 10.9251 6.05998 10.6051 6.09998C10.0051 6.23998 9.4251 6.47998 8.9051 6.79998C8.7451 6.89998 8.54511 6.91999 8.36511 6.87999C8.26511 6.85999 8.1651 6.79997 8.0851 6.73997L7.04509 5.93997C6.90509 6.05997 6.7451 6.19999 6.5851 6.35999L6.5051 6.43997C6.3451 6.59997 6.2051 6.75998 6.0851 6.89998L6.8851 7.95999C7.0651 8.19999 7.06509 8.49999 6.92509 8.75999C6.90509 8.77999 6.9051 8.79998 6.8851 8.81998C6.5651 9.33998 6.3251 9.91998 6.1851 10.52C6.1251 10.8 5.8851 11.02 5.5851 11.06L4.24509 11.24C4.22509 11.42 4.22509 11.64 4.22509 11.86V11.96C4.22509 12.18 4.22509 12.4 4.24509 12.58L5.56511 12.76C5.88511 12.8 6.12511 13.04 6.16511 13.36V13.38C6.30511 13.98 6.54511 14.54 6.86511 15.06C6.96511 15.24 7.00509 15.46 6.92509 15.66C6.90509 15.74 6.8451 15.82 6.7851 15.9L6.0051 16.94C6.1251 17.08 6.26509 17.24 6.42509 17.4L6.5051 17.48C6.6651 17.64 6.82511 17.78 6.96511 17.9L8.02509 17.1C8.28509 16.9 8.6651 16.92 8.9051 17.12C9.4251 17.44 9.98511 17.66 10.5651 17.8C10.8451 17.86 11.0651 18.1 11.1051 18.4L11.2851 19.76Z" fill="#F2F2F2"/>
</g>
</svg>
